<svg xmlns="http://www.w3.org/2000/svg" xmlns:xlink="http://www.w3.org/1999/xlink" width="600" height="400" viewBox="0 0 600 400"><rect width="100%" height="100%" fill="#DDDDDD"/><path d="M159.67 166.87L159.67 175.16L143.32 175.16L143.32 221.09L133.24 221.09L133.24 175.16L116.89 175.16L116.89 166.87L159.67 166.87ZM173.51 184.94L174.07 189.29Q175.88 185.84 178.35 183.88Q180.82 181.91 184.20 181.91L184.20 181.91Q186.86 181.91 188.47 183.07L188.47 183.07L187.88 190.01Q187.69 190.68 187.33 190.96Q186.97 191.24 186.38 191.24L186.38 191.24Q185.81 191.24 184.71 191.06Q183.60 190.87 182.55 190.87L182.55 190.87Q181.01 190.87 179.81 191.32Q178.61 191.77 177.66 192.61Q176.70 193.46 175.97 194.66Q175.24 195.86 174.60 197.39L174.60 197.39L174.60 221.09L165.34 221.09L165.34 182.62L170.77 182.62Q172.20 182.62 172.76 183.13Q173.32 183.63 173.51 184.94L173.51 184.94ZM213.64 211.16L213.64 204.67Q209.62 204.86 206.89 205.36Q204.15 205.87 202.50 206.66Q200.85 207.44 200.14 208.49Q199.42 209.54 199.42 210.78L199.42 210.78Q199.42 213.22 200.87 214.27Q202.31 215.32 204.64 215.32L204.64 215.32Q207.49 215.32 209.57 214.29Q211.65 213.26 213.64 211.16L213.64 211.16ZM194.06 190.94L192.41 187.98Q199.05 181.91 208.39 181.91L208.39 181.91Q211.76 181.91 214.42 183.01Q217.09 184.12 218.92 186.09Q220.76 188.06 221.72 190.79Q222.67 193.53 222.67 196.79L222.67 196.79L222.67 221.09L218.47 221.09Q217.16 221.09 216.45 220.70Q215.74 220.31 215.32 219.11L215.32 219.11L214.50 216.33Q213.04 217.64 211.65 218.64Q210.26 219.63 208.76 220.31Q207.26 220.98 205.56 221.34Q203.85 221.69 201.79 221.69L201.79 221.69Q199.35 221.69 197.29 221.04Q195.22 220.38 193.72 219.07Q192.22 217.76 191.40 215.81Q190.57 213.86 190.57 211.27L190.57 211.27Q190.57 209.81 191.06 208.36Q191.55 206.92 192.66 205.61Q193.76 204.29 195.52 203.13Q197.29 201.97 199.86 201.11Q202.42 200.24 205.84 199.70Q209.25 199.16 213.64 199.04L213.64 199.04L213.64 196.79Q213.64 192.93 211.99 191.07Q210.34 189.22 207.22 189.22L207.22 189.22Q204.97 189.22 203.49 189.74Q202.01 190.27 200.89 190.93Q199.76 191.58 198.84 192.11Q197.92 192.63 196.80 192.63L196.80 192.63Q195.82 192.63 195.15 192.13Q194.47 191.62 194.06 190.94L194.06 190.94ZM231.67 182.62L240.97 182.62L240.97 221.09L231.67 221.09L231.67 182.62ZM242.25 171.41L242.25 171.41Q242.25 172.61 241.76 173.66Q241.27 174.71 240.47 175.49Q239.66 176.28 238.57 176.75Q237.49 177.22 236.25 177.22L236.25 177.22Q235.05 177.22 233.98 176.75Q232.91 176.28 232.12 175.49Q231.34 174.71 230.87 173.66Q230.40 172.61 230.40 171.41L230.40 171.41Q230.40 170.17 230.87 169.08Q231.34 167.99 232.12 167.21Q232.91 166.42 233.98 165.95Q235.05 165.48 236.25 165.48L236.25 165.48Q237.49 165.48 238.57 165.95Q239.66 166.42 240.47 167.21Q241.27 167.99 241.76 169.08Q242.25 170.17 242.25 171.41ZM250.54 165.37L259.80 165.37L259.80 221.09L250.54 221.09L250.54 165.37ZM298.88 166.87L298.88 221.09L288.75 221.09L288.75 166.87L298.88 166.87ZM318.79 221.09L309.53 221.09L309.53 182.62L315.19 182.62Q316.99 182.62 317.55 184.31L317.55 184.31L318.15 187.16Q319.16 186.03 320.27 185.09Q321.38 184.16 322.63 183.48Q323.89 182.81 325.33 182.41Q326.78 182.02 328.50 182.02L328.50 182.02Q332.14 182.02 334.48 183.99Q336.83 185.96 337.99 189.22L337.99 189.22Q338.89 187.31 340.24 185.94Q341.59 184.57 343.20 183.71Q344.81 182.84 346.63 182.43Q348.45 182.02 350.29 182.02L350.29 182.02Q353.48 182.02 355.95 182.99Q358.43 183.97 360.11 185.84Q361.80 187.72 362.68 190.42Q363.56 193.12 363.56 196.61L363.56 196.61L363.56 221.09L354.30 221.09L354.30 196.61Q354.30 192.93 352.69 191.07Q351.08 189.22 347.96 189.22L347.96 189.22Q346.54 189.22 345.32 189.71Q344.10 190.19 343.18 191.11Q342.26 192.03 341.74 193.42Q341.21 194.81 341.21 196.61L341.21 196.61L341.21 221.09L331.91 221.09L331.91 196.61Q331.91 192.74 330.36 190.98Q328.80 189.22 325.80 189.22L325.80 189.22Q323.78 189.22 322.03 190.21Q320.29 191.21 318.79 192.93L318.79 192.93L318.79 221.09ZM392.66 211.16L392.66 204.67Q388.65 204.86 385.91 205.36Q383.18 205.87 381.53 206.66Q379.88 207.44 379.16 208.49Q378.45 209.54 378.45 210.78L378.45 210.78Q378.45 213.22 379.89 214.27Q381.34 215.32 383.66 215.32L383.66 215.32Q386.51 215.32 388.59 214.29Q390.68 213.26 392.66 211.16L392.66 211.16ZM373.09 190.94L371.44 187.98Q378.08 181.91 387.41 181.91L387.41 181.91Q390.79 181.91 393.45 183.01Q396.11 184.12 397.95 186.09Q399.79 188.06 400.74 190.79Q401.70 193.53 401.70 196.79L401.70 196.79L401.70 221.09L397.50 221.09Q396.19 221.09 395.48 220.70Q394.76 220.31 394.35 219.11L394.35 219.11L393.53 216.33Q392.06 217.64 390.68 218.64Q389.29 219.63 387.79 220.31Q386.29 220.98 384.58 221.34Q382.88 221.69 380.81 221.69L380.81 221.69Q378.38 221.69 376.31 221.04Q374.25 220.38 372.75 219.07Q371.25 217.76 370.43 215.81Q369.60 213.86 369.60 211.27L369.60 211.27Q369.60 209.81 370.09 208.36Q370.58 206.92 371.68 205.61Q372.79 204.29 374.55 203.13Q376.31 201.97 378.88 201.11Q381.45 200.24 384.86 199.70Q388.28 199.16 392.66 199.04L392.66 199.04L392.66 196.79Q392.66 192.93 391.01 191.07Q389.36 189.22 386.25 189.22L386.25 189.22Q384.00 189.22 382.52 189.74Q381.04 190.27 379.91 190.93Q378.79 191.58 377.87 192.11Q376.95 192.63 375.83 192.63L375.83 192.63Q374.85 192.63 374.18 192.13Q373.50 191.62 373.09 190.94L373.09 190.94ZM424.46 200.92L424.46 200.92Q426.19 200.92 427.46 200.45Q428.74 199.98 429.58 199.16Q430.43 198.33 430.86 197.17Q431.29 196.01 431.29 194.62L431.29 194.62Q431.29 191.77 429.58 190.10Q427.88 188.43 424.46 188.43L424.46 188.43Q421.05 188.43 419.34 190.10Q417.64 191.77 417.64 194.62L417.64 194.62Q417.64 195.97 418.07 197.13Q418.50 198.29 419.34 199.14Q420.19 199.98 421.48 200.45Q422.78 200.92 424.46 200.92ZM434.93 222.82L434.93 222.82Q434.93 221.69 434.25 220.98Q433.58 220.27 432.41 219.88Q431.25 219.48 429.69 219.29Q428.14 219.11 426.39 219.01Q424.65 218.92 422.79 218.84Q420.94 218.77 419.18 218.54L419.18 218.54Q417.64 219.41 416.68 220.57Q415.73 221.73 415.73 223.27L415.73 223.27Q415.73 224.28 416.23 225.16Q416.74 226.04 417.84 226.68Q418.95 227.32 420.71 227.68Q422.48 228.03 425.03 228.03L425.03 228.03Q427.61 228.03 429.49 227.64Q431.36 227.24 432.58 226.55Q433.80 225.86 434.36 224.90Q434.93 223.94 434.93 222.82ZM433.09 183.93L444.15 183.93L444.15 187.38Q444.15 189.03 442.16 189.41L442.16 189.41L438.71 190.04Q439.50 192.03 439.50 194.39L439.50 194.39Q439.50 197.24 438.36 199.55Q437.21 201.86 435.19 203.47Q433.16 205.08 430.41 205.96Q427.65 206.84 424.46 206.84L424.46 206.84Q423.34 206.84 422.29 206.73Q421.24 206.62 420.23 206.43L420.23 206.43Q418.43 207.52 418.43 208.87L418.43 208.87Q418.43 210.03 419.49 210.57Q420.56 211.12 422.33 211.34Q424.09 211.57 426.34 211.63Q428.59 211.68 430.95 211.87Q433.31 212.06 435.56 212.53Q437.81 212.99 439.58 214.01Q441.34 215.02 442.41 216.76Q443.48 218.51 443.48 221.24L443.48 221.24Q443.48 223.79 442.22 226.19Q440.96 228.59 438.58 230.47Q436.20 232.34 432.73 233.49Q429.26 234.63 424.84 234.63L424.84 234.63Q420.49 234.63 417.26 233.79Q414.04 232.94 411.90 231.54Q409.76 230.13 408.71 228.29Q407.66 226.46 407.66 224.47L407.66 224.47Q407.66 221.77 409.29 219.95Q410.93 218.13 413.78 217.04L413.78 217.04Q412.24 216.26 411.34 214.94Q410.44 213.63 410.44 211.49L410.44 211.49Q410.44 210.63 410.76 209.71Q411.08 208.79 411.69 207.89Q412.31 206.99 413.25 206.19Q414.19 205.38 415.46 204.74L415.46 204.74Q412.54 203.17 410.87 200.54Q409.20 197.92 409.20 194.39L409.20 194.39Q409.20 191.54 410.34 189.24Q411.49 186.93 413.53 185.30Q415.58 183.67 418.37 182.81Q421.16 181.94 424.46 181.94L424.46 181.94Q426.94 181.94 429.11 182.45Q431.29 182.96 433.09 183.93L433.09 183.93ZM457.31 197.43L474.79 197.43Q474.79 195.63 474.28 194.04Q473.78 192.44 472.76 191.24Q471.75 190.04 470.19 189.35Q468.64 188.66 466.58 188.66L466.58 188.66Q462.56 188.66 460.26 190.94Q457.95 193.23 457.31 197.43L457.31 197.43ZM480.94 203.02L457.13 203.02Q457.35 205.98 458.18 208.14Q459.00 210.29 460.35 211.70Q461.70 213.11 463.56 213.80Q465.41 214.49 467.66 214.49L467.66 214.49Q469.91 214.49 471.54 213.97Q473.18 213.44 474.39 212.81Q475.61 212.17 476.53 211.64Q477.45 211.12 478.31 211.12L478.31 211.12Q479.48 211.12 480.04 211.98L480.04 211.98L482.70 215.36Q481.16 217.16 479.25 218.38Q477.34 219.59 475.26 220.32Q473.18 221.06 471.02 221.36Q468.86 221.66 466.84 221.66L466.84 221.66Q462.83 221.66 459.38 220.32Q455.93 218.99 453.38 216.39Q450.83 213.78 449.36 209.94Q447.90 206.09 447.90 201.03L447.90 201.03Q447.90 197.09 449.18 193.63Q450.45 190.16 452.83 187.59Q455.21 185.02 458.64 183.52Q462.08 182.02 466.39 182.02L466.39 182.02Q470.03 182.02 473.10 183.18Q476.18 184.34 478.39 186.57Q480.60 188.81 481.86 192.05Q483.11 195.29 483.11 199.46L483.11 199.46Q483.11 201.56 482.66 202.29Q482.21 203.02 480.94 203.02L480.94 203.02Z" fill="#999999"/></svg>