<svg xmlns="http://www.w3.org/2000/svg" xmlns:xlink="http://www.w3.org/1999/xlink" width="600" height="400" viewBox="0 0 600 400"><rect width="100%" height="100%" fill="#DDDDDD"/><path d="M155.58 195.27L155.58 195.27Q155.58 199.96 154.02 203.88Q152.46 207.80 149.62 210.63Q146.79 213.47 142.81 215.03Q138.83 216.59 133.96 216.59L133.96 216.59L117.70 216.59L117.70 173.94L133.96 173.94Q138.83 173.94 142.81 175.51Q146.79 177.09 149.62 179.91Q152.46 182.73 154.02 186.65Q155.58 190.57 155.58 195.27ZM147.44 195.27L147.44 195.27Q147.44 191.75 146.51 188.97Q145.58 186.18 143.83 184.25Q142.07 182.31 139.58 181.28Q137.09 180.25 133.96 180.25L133.96 180.25L125.67 180.25L125.67 210.28L133.96 210.28Q137.09 210.28 139.58 209.25Q142.07 208.22 143.83 206.28Q145.58 204.35 146.51 201.56Q147.44 198.78 147.44 195.27ZM167.18 197.98L180.92 197.98Q180.92 196.56 180.53 195.31Q180.13 194.06 179.33 193.11Q178.53 192.17 177.31 191.62Q176.09 191.08 174.46 191.08L174.46 191.08Q171.31 191.08 169.49 192.88Q167.68 194.68 167.18 197.98L167.18 197.98ZM185.76 202.37L167.03 202.37Q167.21 204.71 167.85 206.40Q168.50 208.10 169.57 209.20Q170.63 210.31 172.09 210.86Q173.55 211.40 175.32 211.40L175.32 211.40Q177.09 211.40 178.37 210.99Q179.65 210.58 180.61 210.07Q181.57 209.57 182.30 209.16Q183.02 208.75 183.70 208.75L183.70 208.75Q184.61 208.75 185.05 209.43L185.05 209.43L187.15 212.08Q185.94 213.50 184.43 214.46Q182.93 215.41 181.29 215.99Q179.65 216.56 177.96 216.80Q176.26 217.04 174.67 217.04L174.67 217.04Q171.51 217.04 168.80 215.99Q166.08 214.94 164.08 212.89Q162.07 210.84 160.92 207.82Q159.77 204.79 159.77 200.81L159.77 200.81Q159.77 197.71 160.77 194.99Q161.78 192.26 163.65 190.24Q165.52 188.21 168.22 187.03Q170.92 185.85 174.32 185.85L174.32 185.85Q177.18 185.85 179.60 186.77Q182.01 187.68 183.76 189.44Q185.50 191.19 186.48 193.75Q187.47 196.30 187.47 199.57L187.47 199.57Q187.47 201.22 187.12 201.80Q186.76 202.37 185.76 202.37L185.76 202.37ZM202.34 216.59L195.05 216.59L195.05 191.81L192.43 191.40Q191.57 191.22 191.06 190.80Q190.54 190.37 190.54 189.57L190.54 189.57L190.54 186.59L195.05 186.59L195.05 184.35Q195.05 181.75 195.84 179.69Q196.62 177.62 198.08 176.18Q199.54 174.73 201.63 173.97Q203.73 173.20 206.35 173.20L206.35 173.20Q208.45 173.20 210.25 173.76L210.25 173.76L210.10 177.42Q210.07 177.83 209.86 178.08Q209.66 178.33 209.32 178.47Q208.98 178.60 208.54 178.64Q208.09 178.69 207.59 178.69L207.59 178.69Q206.29 178.69 205.28 178.97Q204.26 179.25 203.55 179.94Q202.84 180.63 202.47 181.77Q202.10 182.90 202.10 184.59L202.10 184.59L202.10 186.59L209.98 186.59L209.98 191.78L202.34 191.78L202.34 216.59ZM230.07 208.78L230.07 203.67Q226.91 203.82 224.76 204.22Q222.61 204.62 221.31 205.24Q220.01 205.86 219.45 206.68Q218.89 207.51 218.89 208.48L218.89 208.48Q218.89 210.40 220.03 211.22Q221.16 212.05 222.99 212.05L222.99 212.05Q225.23 212.05 226.87 211.24Q228.51 210.43 230.07 208.78L230.07 208.78ZM214.67 192.88L213.37 190.55Q218.59 185.77 225.94 185.77L225.94 185.77Q228.60 185.77 230.69 186.64Q232.78 187.51 234.23 189.06Q235.68 190.60 236.43 192.76Q237.18 194.91 237.18 197.48L237.18 197.48L237.18 216.59L233.88 216.59Q232.84 216.59 232.28 216.28Q231.72 215.97 231.40 215.03L231.40 215.03L230.75 212.85Q229.60 213.88 228.51 214.66Q227.42 215.44 226.24 215.97Q225.06 216.51 223.71 216.79Q222.37 217.07 220.75 217.07L220.75 217.07Q218.83 217.07 217.21 216.55Q215.59 216.03 214.41 215.00Q213.23 213.97 212.58 212.43Q211.93 210.90 211.93 208.86L211.93 208.86Q211.93 207.71 212.31 206.58Q212.69 205.44 213.57 204.41Q214.44 203.38 215.82 202.46Q217.21 201.55 219.23 200.87Q221.25 200.19 223.93 199.76Q226.62 199.34 230.07 199.25L230.07 199.25L230.07 197.48Q230.07 194.44 228.77 192.98Q227.47 191.52 225.03 191.52L225.03 191.52Q223.26 191.52 222.09 191.93Q220.93 192.34 220.04 192.86Q219.16 193.38 218.43 193.79Q217.71 194.20 216.82 194.20L216.82 194.20Q216.06 194.20 215.53 193.81Q215.00 193.41 214.67 192.88L214.67 192.88ZM262.82 186.33L270.10 186.33L270.10 216.59L265.65 216.59Q264.20 216.59 263.82 215.27L263.82 215.27L263.32 212.85Q261.46 214.74 259.22 215.90Q256.97 217.07 253.94 217.07L253.94 217.07Q251.46 217.07 249.56 216.22Q247.65 215.38 246.35 213.85Q245.06 212.32 244.39 210.21Q243.73 208.10 243.73 205.56L243.73 205.56L243.73 186.33L251.02 186.33L251.02 205.56Q251.02 208.33 252.30 209.85Q253.58 211.37 256.15 211.37L256.15 211.37Q258.04 211.37 259.69 210.53Q261.34 209.69 262.82 208.22L262.82 208.22L262.82 186.33ZM277.39 172.76L284.67 172.76L284.67 216.59L277.39 216.59L277.39 172.76ZM302.05 217.07L302.05 217.07Q298.10 217.07 295.99 214.84Q293.88 212.61 293.88 208.69L293.88 208.69L293.88 191.78L290.78 191.78Q290.19 191.78 289.78 191.40Q289.37 191.02 289.37 190.25L289.37 190.25L289.37 187.36L294.23 186.56L295.77 178.30Q295.91 177.71 296.33 177.39Q296.74 177.06 297.39 177.06L297.39 177.06L301.17 177.06L301.17 186.59L309.25 186.59L309.25 191.78L301.17 191.78L301.17 208.19Q301.17 209.60 301.86 210.40Q302.55 211.20 303.76 211.20L303.76 211.20Q304.44 211.20 304.90 211.03Q305.35 210.87 305.69 210.69Q306.03 210.52 306.30 210.35Q306.56 210.19 306.83 210.19L306.83 210.19Q307.15 210.19 307.36 210.35Q307.57 210.52 307.80 210.84L307.80 210.84L309.99 214.38Q308.39 215.71 306.33 216.39Q304.26 217.07 302.05 217.07ZM337.36 173.94L337.36 216.59L329.40 216.59L329.40 173.94L337.36 173.94ZM353.03 216.59L345.74 216.59L345.74 186.33L350.19 186.33Q351.61 186.33 352.05 187.65L352.05 187.65L352.52 189.90Q353.32 189.01 354.19 188.27Q355.06 187.54 356.05 187.01Q357.04 186.47 358.17 186.16Q359.31 185.85 360.67 185.85L360.67 185.85Q363.53 185.85 365.37 187.40Q367.22 188.95 368.13 191.52L368.13 191.52Q368.84 190.01 369.90 188.94Q370.96 187.86 372.23 187.18Q373.50 186.50 374.93 186.18Q376.36 185.85 377.81 185.85L377.81 185.85Q380.31 185.85 382.26 186.62Q384.21 187.39 385.54 188.86Q386.86 190.34 387.56 192.46Q388.25 194.59 388.25 197.33L388.25 197.33L388.25 216.59L380.96 216.59L380.96 197.33Q380.96 194.44 379.69 192.98Q378.43 191.52 375.98 191.52L375.98 191.52Q374.86 191.52 373.90 191.90Q372.94 192.29 372.22 193.01Q371.49 193.73 371.08 194.82Q370.67 195.91 370.67 197.33L370.67 197.33L370.67 216.59L363.35 216.59L363.35 197.33Q363.35 194.29 362.13 192.91Q360.90 191.52 358.54 191.52L358.54 191.52Q356.95 191.52 355.58 192.30Q354.21 193.08 353.03 194.44L353.03 194.44L353.03 216.59ZM411.14 208.78L411.14 203.67Q407.98 203.82 405.83 204.22Q403.68 204.62 402.38 205.24Q401.08 205.86 400.52 206.68Q399.96 207.51 399.96 208.48L399.96 208.48Q399.96 210.40 401.10 211.22Q402.23 212.05 404.06 212.05L404.06 212.05Q406.30 212.05 407.94 211.24Q409.58 210.43 411.14 208.78L411.14 208.78ZM395.74 192.88L394.44 190.55Q399.67 185.77 407.01 185.77L407.01 185.77Q409.67 185.77 411.76 186.64Q413.86 187.51 415.30 189.06Q416.75 190.60 417.50 192.76Q418.25 194.91 418.25 197.48L418.25 197.48L418.25 216.59L414.95 216.59Q413.91 216.59 413.35 216.28Q412.79 215.97 412.47 215.03L412.47 215.03L411.82 212.85Q410.67 213.88 409.58 214.66Q408.49 215.44 407.31 215.97Q406.13 216.51 404.78 216.79Q403.44 217.07 401.82 217.07L401.82 217.07Q399.90 217.07 398.28 216.55Q396.66 216.03 395.48 215.00Q394.30 213.97 393.65 212.43Q393.00 210.90 393.00 208.86L393.00 208.86Q393.00 207.71 393.38 206.58Q393.77 205.44 394.64 204.41Q395.51 203.38 396.89 202.46Q398.28 201.55 400.30 200.87Q402.32 200.19 405.01 199.76Q407.69 199.34 411.14 199.25L411.14 199.25L411.14 197.48Q411.14 194.44 409.84 192.98Q408.55 191.52 406.10 191.52L406.10 191.52Q404.33 191.52 403.16 191.93Q402.00 192.34 401.11 192.86Q400.23 193.38 399.50 193.79Q398.78 194.20 397.90 194.20L397.90 194.20Q397.13 194.20 396.60 193.81Q396.07 193.41 395.74 192.88L395.74 192.88ZM436.16 200.72L436.16 200.72Q437.51 200.72 438.52 200.35Q439.52 199.99 440.18 199.34Q440.85 198.69 441.19 197.77Q441.53 196.86 441.53 195.77L441.53 195.77Q441.53 193.52 440.18 192.21Q438.84 190.90 436.16 190.90L436.16 190.90Q433.47 190.90 432.13 192.21Q430.79 193.52 430.79 195.77L430.79 195.77Q430.79 196.83 431.13 197.74Q431.47 198.66 432.13 199.32Q432.79 199.99 433.81 200.35Q434.83 200.72 436.16 200.72ZM444.39 217.95L444.39 217.95Q444.39 217.07 443.86 216.51Q443.33 215.94 442.41 215.63Q441.50 215.33 440.27 215.18Q439.05 215.03 437.68 214.96Q436.30 214.88 434.84 214.82Q433.38 214.76 432.00 214.59L432.00 214.59Q430.79 215.27 430.04 216.18Q429.28 217.10 429.28 218.30L429.28 218.30Q429.28 219.10 429.68 219.79Q430.08 220.49 430.95 220.99Q431.82 221.49 433.21 221.77Q434.59 222.05 436.60 222.05L436.60 222.05Q438.64 222.05 440.11 221.74Q441.59 221.43 442.54 220.89Q443.50 220.34 443.95 219.59Q444.39 218.84 444.39 217.95ZM442.94 187.36L451.64 187.36L451.64 190.07Q451.64 191.37 450.08 191.67L450.08 191.67L447.37 192.17Q447.99 193.73 447.99 195.59L447.99 195.59Q447.99 197.83 447.09 199.65Q446.19 201.46 444.59 202.73Q443.00 204.00 440.83 204.69Q438.66 205.38 436.16 205.38L436.16 205.38Q435.27 205.38 434.45 205.30Q433.62 205.21 432.82 205.06L432.82 205.06Q431.41 205.91 431.41 206.98L431.41 206.98Q431.41 207.89 432.25 208.32Q433.09 208.75 434.48 208.92Q435.86 209.10 437.63 209.15Q439.40 209.19 441.26 209.34Q443.12 209.48 444.89 209.85Q446.66 210.22 448.05 211.02Q449.43 211.81 450.27 213.19Q451.11 214.56 451.11 216.71L451.11 216.71Q451.11 218.72 450.13 220.61Q449.14 222.49 447.26 223.97Q445.39 225.44 442.66 226.34Q439.93 227.24 436.45 227.24L436.45 227.24Q433.03 227.24 430.49 226.58Q427.96 225.92 426.27 224.81Q424.59 223.70 423.77 222.26Q422.94 220.81 422.94 219.25L422.94 219.25Q422.94 217.12 424.22 215.69Q425.51 214.26 427.75 213.41L427.75 213.41Q426.54 212.79 425.83 211.76Q425.12 210.72 425.12 209.04L425.12 209.04Q425.12 208.36 425.38 207.64Q425.63 206.92 426.11 206.21Q426.60 205.50 427.34 204.87Q428.07 204.23 429.08 203.73L429.08 203.73Q426.78 202.49 425.46 200.43Q424.15 198.36 424.15 195.59L424.15 195.59Q424.15 193.35 425.05 191.53Q425.95 189.72 427.56 188.44Q429.17 187.15 431.36 186.47Q433.56 185.80 436.16 185.80L436.16 185.80Q438.10 185.80 439.82 186.19Q441.53 186.59 442.94 187.36L442.94 187.36ZM462.00 197.98L475.75 197.98Q475.75 196.56 475.35 195.31Q474.95 194.06 474.15 193.11Q473.36 192.17 472.13 191.62Q470.91 191.08 469.29 191.08L469.29 191.08Q466.13 191.08 464.31 192.88Q462.50 194.68 462.00 197.98L462.00 197.98ZM480.58 202.37L461.85 202.37Q462.03 204.71 462.68 206.40Q463.33 208.10 464.39 209.20Q465.45 210.31 466.91 210.86Q468.37 211.40 470.14 211.40L470.14 211.40Q471.91 211.40 473.19 210.99Q474.48 210.58 475.44 210.07Q476.40 209.57 477.12 209.16Q477.84 208.75 478.52 208.75L478.52 208.75Q479.43 208.75 479.88 209.43L479.88 209.43L481.97 212.08Q480.76 213.50 479.26 214.46Q477.75 215.41 476.11 215.99Q474.48 216.56 472.78 216.80Q471.09 217.04 469.49 217.04L469.49 217.04Q466.34 217.04 463.62 215.99Q460.91 214.94 458.90 212.89Q456.90 210.84 455.75 207.82Q454.59 204.79 454.59 200.81L454.59 200.81Q454.59 197.71 455.60 194.99Q456.60 192.26 458.47 190.24Q460.35 188.21 463.05 187.03Q465.75 185.85 469.14 185.85L469.14 185.85Q472.00 185.85 474.42 186.77Q476.84 187.68 478.58 189.44Q480.32 191.19 481.31 193.75Q482.30 196.30 482.30 199.57L482.30 199.57Q482.30 201.22 481.94 201.80Q481.59 202.37 480.58 202.37L480.58 202.37Z" fill="#999999"/></svg>